<svg xmlns="http://www.w3.org/2000/svg" version="1.1" xmlns:xlink="http://www.w3.org/1999/xlink" xmlns:svgjs="http://svgjs.com/svgjs" width="1440" height="560" preserveAspectRatio="none" viewBox="0 0 1440 560"><g mask="url(&quot;#SvgjsMask1010&quot;)" fill="none"><rect width="1440" height="560" x="0" y="0" fill="rgba(34, 85, 62, 1)"></rect><path d="M1488 560L0 560 L0 186.51Q25.75 92.26, 120 118Q200.95 126.95, 192 207.91Q256.55 200.46, 264 265.01Q285.01 166.02, 384 187.03Q387.24 118.27, 456 121.51Q521.47 66.98, 576 132.45Q663.41 99.86, 696 187.27Q757.91 177.18, 768 239.09Q789.55 188.64, 840 210.19Q867.31 165.5, 912 192.81Q930.15 138.97, 984 157.12Q1054.72 107.84, 1104 178.57Q1161.04 163.61, 1176 220.65Q1258.6 183.25, 1296 265.84Q1340.83 190.67, 1416 235.5Q1423.66 171.16, 1488 178.82z" fill="rgba(56, 163, 114, 1)"></path><path d="M1512 560L0 560 L0 355.54Q28.84 264.38, 120 293.22Q143.62 244.84, 192 268.45Q229.88 186.33, 312 224.22Q364.05 204.27, 384 256.33Q478.26 278.59, 456 372.85Q439.28 284.13, 528 267.41Q572.7 192.12, 648 236.82Q692.03 208.85, 720 252.89Q822.44 235.33, 840 337.77Q844.09 221.86, 960 225.95Q1025.38 171.33, 1080 236.72Q1209.63 246.36, 1200 375.99Q1197.57 301.56, 1272 299.12Q1312.57 219.69, 1392 260.26Q1479.96 228.23, 1512 316.19z" fill="rgba(85, 218, 158, 1)"></path><path d="M1488 560L0 560 L0 466.93Q45.53 440.46, 72 485.99Q85.5 427.49, 144 440.99Q159.34 384.33, 216 399.66Q258.31 369.98, 288 412.29Q377.04 381.33, 408 470.36Q428.46 418.82, 480 439.28Q482.65 369.93, 552 372.58Q578.13 326.71, 624 352.84Q652.98 309.81, 696 338.79Q754.95 325.75, 768 384.7Q839.28 383.99, 840 455.27Q856.75 400.02, 912 416.77Q982.62 367.38, 1032 438Q1086.83 372.83, 1152 427.66Q1153.08 356.74, 1224 357.82Q1306.78 320.6, 1344 403.38Q1389.37 376.75, 1416 422.11Q1424.13 358.24, 1488 366.36z" fill="rgba(129, 242, 183, 1)"></path><path d="M1488 560L0 560 L0 569.28Q13.08 510.36, 72 523.43Q100.65 432.07, 192 460.72Q240.45 437.18, 264 485.63Q345.06 446.69, 384 527.76Q409.36 433.12, 504 458.47Q537.4 419.87, 576 453.27Q637.57 442.84, 648 504.41Q705.01 489.43, 720 546.44Q773.42 479.86, 840 533.28Q847.54 468.81, 912 476.35Q940.38 432.73, 984 461.1Q1034.69 439.8, 1056 490.49Q1164.91 479.4, 1176 588.31Q1185.84 526.14, 1248 535.98Q1278.54 446.51, 1368 477.05Q1436.93 425.98, 1488 494.91z" fill="white"></path></g><defs><mask id="SvgjsMask1010"><rect width="1440" height="560" fill="#ffffff"></rect></mask></defs></svg>